<svg xmlns="http://www.w3.org/2000/svg" width="128" height="128" fill="none" viewBox="0 0 128 128"><rect width="128" height="128" fill="url(#paint0_linear_4:11)" rx="17"/><path fill="#fff" fill-rule="evenodd" d="M23 76.2667C23 81.4582 27.2085 85.6669 32.4 85.6669H41.8V79.4002H32.4C30.6695 79.4002 29.2667 77.9971 29.2667 76.2667V32.4C29.2667 30.6695 30.6695 29.2667 32.4 29.2667H76.2667C77.9971 29.2667 79.4 30.6695 79.4 32.4V41.7997H51.2C46.0086 41.7997 41.8 46.0083 41.8 51.1997V95.0663C41.8 100.258 46.0086 104.466 51.2 104.466H95.0667C100.258 104.466 104.467 100.258 104.467 95.0663V51.1997C104.467 46.0083 100.258 41.7997 95.0667 41.7997H85.6667V32.4C85.6667 27.2085 81.458 23 76.2667 23H32.4C27.2085 23 23 27.2085 23 32.4V76.2667ZM48.0667 51.1997C48.0667 49.4693 49.4695 48.0664 51.2 48.0664H95.0667C96.7969 48.0664 98.2 49.4693 98.2 51.1997V95.0663C98.2 96.7971 96.7969 98.1996 95.0667 98.1996H51.2C49.4695 98.1996 48.0667 96.7971 48.0667 95.0663V51.1997Z" clip-rule="evenodd"/><defs><linearGradient id="paint0_linear_4:11" x1="128" x2="64" y1="6" y2="128" gradientUnits="userSpaceOnUse"><stop stop-color="#F8544F"/><stop offset="1" stop-color="#FD7A19"/></linearGradient></defs></svg>